<?xml version="1.0" encoding="UTF-8"?>
<svg xmlns="http://www.w3.org/2000/svg" viewBox="0 0 230.71 71.37">
  <defs>
    <style>
      .cls-1 {
        fill: #939393;
      }
    </style>
  </defs>
  <g id="VLM_Frame">
    <path d="M106.61,.09c-2.33,.46-4.32,2.07-5.04,4.45-.34,1.13-7.25,22.35-7.25,22.35h-3.53L99.44,0S16.2,0,14.34,0c-2.86,0-5.12,2.26-5.63,5.06C7.73,10.41,0,51.84,0,51.84c0,0,166.09,0,169.2,.02,2.73,0,4.85-1.57,5.7-4.19C176.81,41.75,190.29,0,190.29,0,189.22,0,107,.01,106.61,.09ZM47.25,46.86c-9.25-.01-36.19-.01-40.41-.01h-.8c.43-2.26,3.52-18.75,4.65-24.84,.99-5.35,1.97-10.69,2.94-16.04,.08-.42,.26-.58,.7-.58h0c7.76,.01,15.53,0,23.29,.01,.12,0,.24,.03,.48,.06-2.38,9.7-4.75,19.35-7.11,29,.05,.02,.09,.03,.14,.05,.46-1.09,.92-2.18,1.37-3.27,2.22-5.4,9.1-22.21,10.31-25.21,.17-.42,.36-.64,.86-.64h0c7.74,.02,15.48,.01,23.21,.01l-18.56,40.77c-.23,.5-1.07,.7-1.07,.7Zm40.62,0c-7.82-.01-32.05-.03-32.35-.04,.74-2.27,11.83-36.34,13.23-40.72,.16-.5,.37-.72,.94-.72h0c4.86,.01,22.52,.04,22.83,.06-2.88,8.83-5.74,17.59-8.64,26.45h8.81l-4.84,14.97Zm82.27-.72c-.16,.49-.33,.72-.92,.72h0c-4.68-.02-21.27-.02-22.15-.02-.22,0-.44-.02-.76-.04,2.89-8.91,8.53-26.62,8.49-26.63-.83,1.73-1.67,3.45-2.5,5.18-2.21,4.61-4.41,9.23-6.62,13.84-1.15,2.4-2.29,4.8-3.46,7.18-.1,.21-.42,.45-.64,.45-3.86,.01-17.41,.01-20.33,.01-.07,0-.14-.03-.29-.07,1.51-8.95,4.46-26.85,4.43-26.86-.11,.33-.22,.65-.33,.98-1.55,4.74-7.05,21.67-8.24,25.4-.11,.34-.21,.57-.65,.57h0c-7.56-.01-15.12-.01-22.69-.01-.1,0-.2-.03-.39-.07,.32-.98,.62-1.87,.91-2.76,1.93-5.91,11.93-36.59,12.36-38.02,.14-.47,.38-.62,.87-.62h0c11.67,.01,23.35,.01,35.02,.01,.2,0,.39,.03,.64,.06-1.6,6.92-3.18,13.78-4.77,20.65,.05,.02,.6-1.01,.83-1.54,2.1-4.96,7.34-17.25,7.8-18.46,.22-.57,.53-.73,1.12-.73h0c6.49,.01,33.77,.01,35.5,.01-.37,1.19-11.31,34.83-13.22,40.75Z"/>
  </g>
  <g id="_.TV" data-name=".TV">
    <g>
      <path class="cls-1" d="M223.53,26.43c-.95-.53-1.94,.38-2.47,1.01-.11,.15-.22,.29-.33,.43-.03,.05-.05,.08-.05,.08h0c-1.41,1.79-3.14,3.27-4.97,4.66-1.15,.87-2.53,1.59-3.34,2.71-2.38,3.31-5.32,6.13-7.88,9.28-.61,.75-1.08,1.78-1.87,2.21-1.58,.85-2.57,2.22-3.7,3.49-.55,.62-1.03,1.33-2.01,1.58,0-1.54,.45-2.82,1-4.08,.86-1.97,1.64-3.96,1.63-6.17,0-.55,.23-1.11,.38-1.66,.27-1.02,.99-1.82,1.38-2.79,.51-1.26-.16-2.94-1.26-3.2-1.74-.41-4.03,.95-4.49,2.71-.77,2.91-1.26,5.9-2.24,8.75-.58,1.71-1.27,3.39-1.79,5.12-.43,1.41-.74,2.87-.44,4.36,.28,1.4,.85,2.45,2.34,3.19,1.14,.56,2.04,.97,3.22,.46,1.43-.62,2.81-1.36,3.84-2.52,3.77-4.27,7.93-8.24,11.12-12.98,2.22-3.29,4.9-6.11,7.57-8.97,1.79-1.91,3.41-3.92,4.73-6.13,.23-.57,.26-1.19-.36-1.54Z"/>
      <path class="cls-1" d="M169.88,56.16c-.19-1.22-.6-1.71-1.73-1.88-1.9-.29-4.84,1.22-3.76,3.53,.52,1.11,1.62,1.88,2.73,2.31,2.08,.81,2.96-2.5,2.77-3.96Z"/>
      <path class="cls-1" d="M227.49,16.42c-1.07-.08-2.15-.17-3.12,.1-1.46,.41-4.94,.72-6.43,.99h-.06c-2.49,.46-4.99,.81-7.46,1.34-.16,.03-.32,.08-.49,.13l-3.31,.61-6.83,1.25c-6.27,.97-12.48,2.27-18.67,3.66-.86-.03-1.72-.02-2.49,.23-3.89,1.24-7.93,1.75-11.86,2.75-.94,.24-1.93,.79-2.81,.66,0,0-8.09,2-9.51,2.96-1.19,.82-1.63,1.62-1.66,2.25,0,.08,0,.16,0,.24,0,.03,0,.06,0,.09,.02,.28,.07,.51,.12,.67,.03,.08,.05,.17,.08,.25,.39,1.01,1.09,1.39,2.13,1.18,2.44-.49,4.88-.93,7.29-1.53,7.67-1.94,15.3-4.08,23.03-5.78,1.48-.32,2.99-.47,4.62-.72-1.12,1.83-2.12,3.53-3.19,5.19-5.05,7.82-9.55,15.95-13.59,24.33-.18,.3-.37,.59-.57,.88-1.24,1.76-2.4,3.55-2.83,5.72-.11,.54-.45,1.04-.7,1.55-.47,.94-1.33,1.59-1.91,2.45-.75,1.13-.43,2.91,.6,3.38,1.62,.75,4.14-.12,4.94-1.76,1.34-2.7,2.41-5.53,3.94-8.13,.91-1.56,1.92-3.07,2.77-4.66,.46-.86,.86-1.76,1.09-2.71,5.27-9.61,10.79-19.06,17.44-27.8,.31-.4,.64-.66,1.05-.83,.33-.01,.67-.03,1-.09,5.61-.99,11.34-1.49,16.79-3.19,2.35-.74,6.73-1.22,9.13-1.62h0s0,0,0,0c.49-.08,.99-.16,1.48-.24,1.44-.29,3.38-.87,3.16-1.89-.33-1.59-3.16-1.92-3.21-1.93Z"/>
    </g>
  </g>
</svg>