<?xml version="1.0" encoding="UTF-8"?>
<svg id="Play_Button" xmlns="http://www.w3.org/2000/svg" viewBox="0 0 118.29 115.49">
  <path d="M114.2,55.49L27.91,1.88c-3.73-2.32-8.62-.12-9.36,4.21L1.27,107.31c-.84,4.9,4.16,8.74,8.68,6.66l103.57-47.61c4.48-2.06,4.87-8.27,.68-10.87Zm-80.21,13.78c-.1,.22-.22,.31-.48,.31-6.01,0-12.03,0-18.04,0h-.36c.19-1.01,.37-1.97,.55-2.93,.51-2.72,1.02-5.44,1.52-8.16,.44-2.39,.88-4.77,1.31-7.16,.03-.19,.11-.26,.31-.26,3.47,0,6.93,0,10.4,0,.05,0,.11,.01,.22,.03-1.06,4.33-2.12,8.64-3.17,12.95,.02,0,.04,.01,.06,.02,.2-.49,.41-.97,.61-1.46,.99-2.41,1.98-4.82,2.97-7.24,.55-1.34,1.09-2.68,1.63-4.02,.08-.19,.16-.29,.39-.29,3.45,0,6.91,0,10.36,0,.08,0,.15,.02,.27,.03-.33,.7-.64,1.37-.96,2.04-1.83,3.88-3.66,7.76-5.49,11.64-.7,1.49-1.41,2.98-2.1,4.48Zm18.25,.31c-4.91,0-9.83,0-14.74,0-.08,0-.16,0-.29-.01,.33-1.01,.65-1.98,.96-2.94,1.02-3.12,2.03-6.25,3.05-9.37,.63-1.95,1.27-3.91,1.89-5.86,.07-.22,.17-.32,.42-.32,3.28,0,6.57,0,9.85,0,.1,0,.2,.01,.34,.02-1.29,3.94-2.56,7.85-3.85,11.81h4.78c-.01,.1,0,.17-.03,.23-.66,2.05-1.33,4.1-1.99,6.15-.07,.21-.15,.3-.39,.3Zm41.55-17c-.95,2.92-1.91,5.84-2.86,8.76-.86,2.64-1.72,5.28-2.57,7.93-.07,.22-.15,.32-.41,.32-3.3-.01-6.59,0-9.89,0-.1,0-.2-.01-.34-.02,1.29-3.98,2.57-7.92,3.85-11.86-.02,0-.04-.02-.06-.02-.37,.77-.74,1.54-1.11,2.31-.99,2.06-1.97,4.12-2.95,6.18-.51,1.07-1.02,2.14-1.54,3.21-.05,.09-.19,.2-.29,.2-3.02,0-6.05,0-9.07,0-.03,0-.06-.02-.13-.03,.68-3.99,1.35-7.98,2.02-11.97-.02,0-.03,0-.05-.01-.05,.15-.1,.29-.15,.44-.69,2.11-1.38,4.23-2.07,6.34-.54,1.66-1.08,3.33-1.61,5-.05,.15-.1,.25-.29,.25-3.38,0-6.75,0-10.13,0-.04,0-.09-.01-.17-.03,.14-.44,.28-.83,.4-1.23,.86-2.64,1.72-5.28,2.58-7.92,.78-2.38,1.55-4.76,2.33-7.15,.21-.63,.42-1.26,.61-1.9,.06-.21,.17-.27,.39-.27,5.21,0,10.42,0,15.63,0,.09,0,.18,.02,.29,.03-.71,3.09-1.42,6.15-2.13,9.22,.02,0,.05,.02,.07,.03,.1-.24,.19-.48,.3-.71,.94-2.21,1.88-4.43,2.82-6.64,.22-.53,.46-1.06,.66-1.59,.1-.26,.24-.32,.5-.32,4.54,0,9.08,0,13.63,0h2.22c-.17,.53-.31,1.02-.47,1.51Z"/>
</svg>